<svg width="50" height="47" viewBox="0 0 50 47" fill="none" xmlns="http://www.w3.org/2000/svg">
<path d="M2.125 17C1.23125 17 0.5 17.7313 0.5 18.625V28.375C0.5 29.2687 1.23125 30 2.125 30C3.01875 30 3.75 29.2687 3.75 28.375V18.625C3.75 17.7313 3.01875 17 2.125 17ZM47.625 17C46.7313 17 46 17.7313 46 18.625V28.375C46 29.2687 46.7313 30 47.625 30C48.5187 30 49.25 29.2687 49.25 28.375V18.625C49.25 17.7313 48.5187 17 47.625 17ZM8.625 7.25C7.73125 7.25 7 7.98125 7 8.875V38.125C7 39.0187 7.73125 39.75 8.625 39.75C9.51875 39.75 10.25 39.0187 10.25 38.125V8.875C10.25 7.98125 9.51875 7.25 8.625 7.25ZM15.125 13.75C14.2312 13.75 13.5 14.4812 13.5 15.375V31.625C13.5 32.5187 14.2312 33.25 15.125 33.25C16.0188 33.25 16.75 32.5187 16.75 31.625V15.375C16.75 14.4812 16.0188 13.75 15.125 13.75ZM21.625 20.25C20.7313 20.25 20 20.9813 20 21.875V25.125C20 26.0187 20.7313 26.75 21.625 26.75C22.5187 26.75 23.25 26.0187 23.25 25.125V21.875C23.25 20.9813 22.5187 20.25 21.625 20.25ZM28.125 13.75C27.2313 13.75 26.5 14.4812 26.5 15.375V31.625C26.5 32.5187 27.2313 33.25 28.125 33.25C29.0187 33.25 29.75 32.5187 29.75 31.625V15.375C29.75 14.4812 29.0187 13.75 28.125 13.75ZM34.625 0.75C33.7313 0.75 33 1.48125 33 2.375V44.625C33 45.5187 33.7313 46.25 34.625 46.25C35.5187 46.25 36.25 45.5187 36.25 44.625V2.375C36.25 1.48125 35.5187 0.75 34.625 0.75ZM41.125 7.25C40.2313 7.25 39.5 7.98125 39.5 8.875V38.125C39.5 39.0187 40.2313 39.75 41.125 39.75C42.0187 39.75 42.75 39.0187 42.75 38.125V8.875C42.75 7.98125 42.0187 7.25 41.125 7.25Z" fill="black"/>
</svg>
