<svg width="50" height="48" viewBox="0 0 50 48" fill="none" xmlns="http://www.w3.org/2000/svg">
<g filter="url(#filter0_iii_16_299)">
<path d="M31.1164 19.6188C31.3372 19.5957 31.5416 19.4917 31.6902 19.3269C31.8388 19.162 31.9211 18.9479 31.9213 18.7259V13.3596C31.9212 13.234 31.8947 13.1098 31.8436 12.995C31.7925 12.8802 31.7179 12.7775 31.6246 12.6933C31.5313 12.6092 31.4214 12.5455 31.302 12.5065C31.1826 12.4675 31.0563 12.4539 30.9313 12.4667L20.5221 13.5447C20.0799 13.5905 19.6704 13.7986 19.3728 14.1287C19.0751 14.4589 18.9104 14.8877 18.9106 15.3322V39.593H24.0056V21.5717C24.0056 21.2383 24.1293 20.9167 24.3526 20.6692C24.5759 20.4216 24.8831 20.2657 25.2147 20.2315L31.1164 19.6188Z" fill="url(#paint0_linear_16_299)"/>
</g>
<path d="M31.1164 19.6188C31.3372 19.5957 31.5416 19.4917 31.6902 19.3269C31.8388 19.162 31.9211 18.9479 31.9213 18.7259V13.3596C31.9212 13.234 31.8947 13.1098 31.8436 12.995C31.7925 12.8802 31.7179 12.7775 31.6246 12.6933C31.5313 12.6092 31.4214 12.5455 31.302 12.5065C31.1826 12.4675 31.0563 12.4539 30.9313 12.4667L20.5221 13.5447C20.0799 13.5905 19.6704 13.7986 19.3728 14.1287C19.0751 14.4589 18.9104 14.8877 18.9106 15.3322V39.593H24.0056V21.5717C24.0056 21.2383 24.1293 20.9167 24.3526 20.6692C24.5759 20.4216 24.8831 20.2657 25.2147 20.2315L31.1164 19.6188Z" fill="url(#paint1_radial_16_299)"/>
<g filter="url(#filter1_iii_16_299)">
<path d="M49.1934 11.9421C49.4145 11.9195 49.6193 11.8156 49.7683 11.6507C49.9173 11.4858 49.9998 11.2715 50 11.0493V5.68294C50.0002 5.55699 49.9739 5.43241 49.9228 5.31729C49.8717 5.20216 49.797 5.09907 49.7035 5.0147C49.6099 4.93033 49.4997 4.86657 49.38 4.82756C49.2602 4.78855 49.1336 4.77516 49.0083 4.78826L38.5991 5.86619C38.1569 5.91198 37.7474 6.12008 37.4497 6.45025C37.1521 6.78042 36.9874 7.20923 36.9875 7.65377V31.9163H42.0826V13.8932C42.0826 13.5598 42.2062 13.2383 42.4295 12.9907C42.6529 12.7432 42.96 12.5872 43.2917 12.553L49.1934 11.9421Z" fill="url(#paint2_linear_16_299)"/>
</g>
<g filter="url(#filter2_iii_16_299)">
<path d="M49.1934 11.9421C49.4145 11.9195 49.6193 11.8156 49.7683 11.6507C49.9173 11.4858 49.9998 11.2715 50 11.0493V5.68294C50.0002 5.55699 49.9739 5.43241 49.9228 5.31729C49.8717 5.20216 49.797 5.09907 49.7035 5.0147C49.6099 4.93033 49.4997 4.86657 49.38 4.82756C49.2602 4.78855 49.1336 4.77516 49.0083 4.78826L38.5991 5.86619C38.1569 5.91198 37.7474 6.12008 37.4497 6.45025C37.1521 6.78042 36.9874 7.20923 36.9875 7.65377V31.9163H42.0826V13.8932C42.0826 13.5598 42.2062 13.2383 42.4295 12.9907C42.6529 12.7432 42.96 12.5872 43.2917 12.553L49.1934 11.9421Z" fill="url(#paint3_linear_16_299)"/>
</g>
<g filter="url(#filter3_iii_16_299)">
<path d="M22.245 7.43638C22.4661 7.41371 22.6709 7.30989 22.8199 7.14497C22.9689 6.98005 23.0515 6.76575 23.0516 6.5435V1.17718C23.0516 1.05138 23.0251 0.926997 22.9739 0.812089C22.9227 0.69718 22.8479 0.594307 22.7544 0.510133C22.6609 0.425958 22.5508 0.362359 22.4312 0.323455C22.3115 0.28455 22.1851 0.271207 22.0599 0.28429L11.6507 1.36222C11.2088 1.40798 10.7996 1.61582 10.502 1.94562C10.2044 2.27541 10.0395 2.70378 10.0392 3.148V23.8731H15.1342V9.38745C15.1342 9.05405 15.2579 8.7325 15.4812 8.48495C15.7045 8.23741 16.0117 8.08144 16.3433 8.04721L22.245 7.43638Z" fill="url(#paint4_linear_16_299)"/>
</g>
<path d="M22.245 7.43638C22.4661 7.41371 22.6709 7.30989 22.8199 7.14497C22.9689 6.98005 23.0515 6.76575 23.0516 6.5435V1.17718C23.0516 1.05138 23.0251 0.926997 22.9739 0.812089C22.9227 0.69718 22.8479 0.594307 22.7544 0.510133C22.6609 0.425958 22.5508 0.362359 22.4312 0.323455C22.3115 0.28455 22.1851 0.271207 22.0599 0.28429L11.6507 1.36222C11.2088 1.40798 10.7996 1.61582 10.502 1.94562C10.2044 2.27541 10.0395 2.70378 10.0392 3.148V23.8731H15.1342V9.38745C15.1342 9.05405 15.2579 8.7325 15.4812 8.48495C15.7045 8.23741 16.0117 8.08144 16.3433 8.04721L22.245 7.43638Z" fill="url(#paint5_linear_16_299)"/>
<path d="M22.245 7.43638C22.4661 7.41371 22.6709 7.30989 22.8199 7.14497C22.9689 6.98005 23.0515 6.76575 23.0516 6.5435V1.17718C23.0516 1.05138 23.0251 0.926997 22.9739 0.812089C22.9227 0.69718 22.8479 0.594307 22.7544 0.510133C22.6609 0.425958 22.5508 0.362359 22.4312 0.323455C22.3115 0.28455 22.1851 0.271207 22.0599 0.28429L11.6507 1.36222C11.2088 1.40798 10.7996 1.61582 10.502 1.94562C10.2044 2.27541 10.0395 2.70378 10.0392 3.148V23.8731H15.1342V9.38745C15.1342 9.05405 15.2579 8.7325 15.4812 8.48495C15.7045 8.23741 16.0117 8.08144 16.3433 8.04721L22.245 7.43638Z" fill="url(#paint6_radial_16_299)"/>
<path d="M16.3271 47.7206C20.5668 47.7206 24.0038 44.2836 24.0038 40.0439C24.0038 35.8042 20.5668 32.3672 16.3271 32.3672C12.0874 32.3672 8.65039 35.8042 8.65039 40.0439C8.65039 44.2836 12.0874 47.7206 16.3271 47.7206Z" fill="url(#paint7_radial_16_299)"/>
<path d="M16.3271 47.7206C20.5668 47.7206 24.0038 44.2836 24.0038 40.0439C24.0038 35.8042 20.5668 32.3672 16.3271 32.3672C12.0874 32.3672 8.65039 35.8042 8.65039 40.0439C8.65039 44.2836 12.0874 47.7206 16.3271 47.7206Z" fill="url(#paint8_radial_16_299)"/>
<path d="M16.3271 47.7206C20.5668 47.7206 24.0038 44.2836 24.0038 40.0439C24.0038 35.8042 20.5668 32.3672 16.3271 32.3672C12.0874 32.3672 8.65039 35.8042 8.65039 40.0439C8.65039 44.2836 12.0874 47.7206 16.3271 47.7206Z" fill="url(#paint9_radial_16_299)"/>
<path d="M16.3271 47.7206C20.5668 47.7206 24.0038 44.2836 24.0038 40.0439C24.0038 35.8042 20.5668 32.3672 16.3271 32.3672C12.0874 32.3672 8.65039 35.8042 8.65039 40.0439C8.65039 44.2836 12.0874 47.7206 16.3271 47.7206Z" fill="url(#paint10_radial_16_299)"/>
<path d="M16.3271 47.7206C20.5668 47.7206 24.0038 44.2836 24.0038 40.0439C24.0038 35.8042 20.5668 32.3672 16.3271 32.3672C12.0874 32.3672 8.65039 35.8042 8.65039 40.0439C8.65039 44.2836 12.0874 47.7206 16.3271 47.7206Z" fill="url(#paint11_radial_16_299)"/>
<path d="M7.56171 31.2551C11.7379 31.2551 15.1234 27.8696 15.1234 23.6934C15.1234 19.5172 11.7379 16.1317 7.56171 16.1317C3.38549 16.1317 0 19.5172 0 23.6934C0 27.8696 3.38549 31.2551 7.56171 31.2551Z" fill="url(#paint12_radial_16_299)"/>
<path d="M7.56171 31.2551C11.7379 31.2551 15.1234 27.8696 15.1234 23.6934C15.1234 19.5172 11.7379 16.1317 7.56171 16.1317C3.38549 16.1317 0 19.5172 0 23.6934C0 27.8696 3.38549 31.2551 7.56171 31.2551Z" fill="url(#paint13_radial_16_299)"/>
<path d="M7.56171 31.2551C11.7379 31.2551 15.1234 27.8696 15.1234 23.6934C15.1234 19.5172 11.7379 16.1317 7.56171 16.1317C3.38549 16.1317 0 19.5172 0 23.6934C0 27.8696 3.38549 31.2551 7.56171 31.2551Z" fill="url(#paint14_radial_16_299)"/>
<path d="M7.56171 31.2551C11.7379 31.2551 15.1234 27.8696 15.1234 23.6934C15.1234 19.5172 11.7379 16.1317 7.56171 16.1317C3.38549 16.1317 0 19.5172 0 23.6934C0 27.8696 3.38549 31.2551 7.56171 31.2551Z" fill="url(#paint15_radial_16_299)"/>
<path d="M7.56171 31.2551C11.7379 31.2551 15.1234 27.8696 15.1234 23.6934C15.1234 19.5172 11.7379 16.1317 7.56171 16.1317C3.38549 16.1317 0 19.5172 0 23.6934C0 27.8696 3.38549 31.2551 7.56171 31.2551Z" fill="url(#paint16_radial_16_299)"/>
<path d="M34.4059 40.1679C38.6456 40.1679 42.0826 36.7309 42.0826 32.4912C42.0826 28.2515 38.6456 24.8145 34.4059 24.8145C30.1662 24.8145 26.7292 28.2515 26.7292 32.4912C26.7292 36.7309 30.1662 40.1679 34.4059 40.1679Z" fill="url(#paint17_radial_16_299)"/>
<path d="M34.4059 40.1679C38.6456 40.1679 42.0826 36.7309 42.0826 32.4912C42.0826 28.2515 38.6456 24.8145 34.4059 24.8145C30.1662 24.8145 26.7292 28.2515 26.7292 32.4912C26.7292 36.7309 30.1662 40.1679 34.4059 40.1679Z" fill="url(#paint18_radial_16_299)"/>
<path d="M34.4059 40.1679C38.6456 40.1679 42.0826 36.7309 42.0826 32.4912C42.0826 28.2515 38.6456 24.8145 34.4059 24.8145C30.1662 24.8145 26.7292 28.2515 26.7292 32.4912C26.7292 36.7309 30.1662 40.1679 34.4059 40.1679Z" fill="url(#paint19_radial_16_299)"/>
<path d="M34.4059 40.1679C38.6456 40.1679 42.0826 36.7309 42.0826 32.4912C42.0826 28.2515 38.6456 24.8145 34.4059 24.8145C30.1662 24.8145 26.7292 28.2515 26.7292 32.4912C26.7292 36.7309 30.1662 40.1679 34.4059 40.1679Z" fill="url(#paint20_radial_16_299)"/>
<defs>
<filter id="filter0_iii_16_299" x="18.7106" y="12.1621" width="13.5107" height="27.7309" filterUnits="userSpaceOnUse" color-interpolation-filters="sRGB">
<feFlood flood-opacity="0" result="BackgroundImageFix"/>
<feBlend mode="normal" in="SourceGraphic" in2="BackgroundImageFix" result="shape"/>
<feColorMatrix in="SourceAlpha" type="matrix" values="0 0 0 0 0 0 0 0 0 0 0 0 0 0 0 0 0 0 127 0" result="hardAlpha"/>
<feOffset dx="0.5" dy="0.3"/>
<feGaussianBlur stdDeviation="0.15"/>
<feComposite in2="hardAlpha" operator="arithmetic" k2="-1" k3="1"/>
<feColorMatrix type="matrix" values="0 0 0 0 0.239216 0 0 0 0 0.211765 0 0 0 0 0.266667 0 0 0 1 0"/>
<feBlend mode="normal" in2="shape" result="effect1_innerShadow_16_299"/>
<feColorMatrix in="SourceAlpha" type="matrix" values="0 0 0 0 0 0 0 0 0 0 0 0 0 0 0 0 0 0 127 0" result="hardAlpha"/>
<feOffset dx="-0.2"/>
<feGaussianBlur stdDeviation="0.1"/>
<feComposite in2="hardAlpha" operator="arithmetic" k2="-1" k3="1"/>
<feColorMatrix type="matrix" values="0 0 0 0 0.317647 0 0 0 0 0.298039 0 0 0 0 0.341176 0 0 0 1 0"/>
<feBlend mode="normal" in2="effect1_innerShadow_16_299" result="effect2_innerShadow_16_299"/>
<feColorMatrix in="SourceAlpha" type="matrix" values="0 0 0 0 0 0 0 0 0 0 0 0 0 0 0 0 0 0 127 0" result="hardAlpha"/>
<feOffset dy="-0.3"/>
<feGaussianBlur stdDeviation="0.15"/>
<feComposite in2="hardAlpha" operator="arithmetic" k2="-1" k3="1"/>
<feColorMatrix type="matrix" values="0 0 0 0 0.211765 0 0 0 0 0.129412 0 0 0 0 0.278431 0 0 0 1 0"/>
<feBlend mode="normal" in2="effect2_innerShadow_16_299" result="effect3_innerShadow_16_299"/>
</filter>
<filter id="filter1_iii_16_299" x="36.7875" y="4.48339" width="13.5125" height="27.7329" filterUnits="userSpaceOnUse" color-interpolation-filters="sRGB">
<feFlood flood-opacity="0" result="BackgroundImageFix"/>
<feBlend mode="normal" in="SourceGraphic" in2="BackgroundImageFix" result="shape"/>
<feColorMatrix in="SourceAlpha" type="matrix" values="0 0 0 0 0 0 0 0 0 0 0 0 0 0 0 0 0 0 127 0" result="hardAlpha"/>
<feOffset dx="0.5" dy="0.3"/>
<feGaussianBlur stdDeviation="0.15"/>
<feComposite in2="hardAlpha" operator="arithmetic" k2="-1" k3="1"/>
<feColorMatrix type="matrix" values="0 0 0 0 0.239216 0 0 0 0 0.211765 0 0 0 0 0.266667 0 0 0 1 0"/>
<feBlend mode="normal" in2="shape" result="effect1_innerShadow_16_299"/>
<feColorMatrix in="SourceAlpha" type="matrix" values="0 0 0 0 0 0 0 0 0 0 0 0 0 0 0 0 0 0 127 0" result="hardAlpha"/>
<feOffset dx="-0.2"/>
<feGaussianBlur stdDeviation="0.1"/>
<feComposite in2="hardAlpha" operator="arithmetic" k2="-1" k3="1"/>
<feColorMatrix type="matrix" values="0 0 0 0 0.317647 0 0 0 0 0.298039 0 0 0 0 0.341176 0 0 0 1 0"/>
<feBlend mode="normal" in2="effect1_innerShadow_16_299" result="effect2_innerShadow_16_299"/>
<feColorMatrix in="SourceAlpha" type="matrix" values="0 0 0 0 0 0 0 0 0 0 0 0 0 0 0 0 0 0 127 0" result="hardAlpha"/>
<feOffset dy="-0.3"/>
<feGaussianBlur stdDeviation="0.15"/>
<feComposite in2="hardAlpha" operator="arithmetic" k2="-1" k3="1"/>
<feColorMatrix type="matrix" values="0 0 0 0 0.211765 0 0 0 0 0.129412 0 0 0 0 0.278431 0 0 0 1 0"/>
<feBlend mode="normal" in2="effect2_innerShadow_16_299" result="effect3_innerShadow_16_299"/>
</filter>
<filter id="filter2_iii_16_299" x="36.7875" y="4.48339" width="13.5125" height="27.7329" filterUnits="userSpaceOnUse" color-interpolation-filters="sRGB">
<feFlood flood-opacity="0" result="BackgroundImageFix"/>
<feBlend mode="normal" in="SourceGraphic" in2="BackgroundImageFix" result="shape"/>
<feColorMatrix in="SourceAlpha" type="matrix" values="0 0 0 0 0 0 0 0 0 0 0 0 0 0 0 0 0 0 127 0" result="hardAlpha"/>
<feOffset dx="0.5" dy="0.3"/>
<feGaussianBlur stdDeviation="0.15"/>
<feComposite in2="hardAlpha" operator="arithmetic" k2="-1" k3="1"/>
<feColorMatrix type="matrix" values="0 0 0 0 0.239216 0 0 0 0 0.211765 0 0 0 0 0.266667 0 0 0 1 0"/>
<feBlend mode="normal" in2="shape" result="effect1_innerShadow_16_299"/>
<feColorMatrix in="SourceAlpha" type="matrix" values="0 0 0 0 0 0 0 0 0 0 0 0 0 0 0 0 0 0 127 0" result="hardAlpha"/>
<feOffset dx="-0.2"/>
<feGaussianBlur stdDeviation="0.1"/>
<feComposite in2="hardAlpha" operator="arithmetic" k2="-1" k3="1"/>
<feColorMatrix type="matrix" values="0 0 0 0 0.317647 0 0 0 0 0.298039 0 0 0 0 0.341176 0 0 0 1 0"/>
<feBlend mode="normal" in2="effect1_innerShadow_16_299" result="effect2_innerShadow_16_299"/>
<feColorMatrix in="SourceAlpha" type="matrix" values="0 0 0 0 0 0 0 0 0 0 0 0 0 0 0 0 0 0 127 0" result="hardAlpha"/>
<feOffset dy="-0.3"/>
<feGaussianBlur stdDeviation="0.15"/>
<feComposite in2="hardAlpha" operator="arithmetic" k2="-1" k3="1"/>
<feColorMatrix type="matrix" values="0 0 0 0 0.211765 0 0 0 0 0.129412 0 0 0 0 0.278431 0 0 0 1 0"/>
<feBlend mode="normal" in2="effect2_innerShadow_16_299" result="effect3_innerShadow_16_299"/>
</filter>
<filter id="filter3_iii_16_299" x="9.83918" y="-0.0205811" width="13.5125" height="24.1937" filterUnits="userSpaceOnUse" color-interpolation-filters="sRGB">
<feFlood flood-opacity="0" result="BackgroundImageFix"/>
<feBlend mode="normal" in="SourceGraphic" in2="BackgroundImageFix" result="shape"/>
<feColorMatrix in="SourceAlpha" type="matrix" values="0 0 0 0 0 0 0 0 0 0 0 0 0 0 0 0 0 0 127 0" result="hardAlpha"/>
<feOffset dx="0.5" dy="0.3"/>
<feGaussianBlur stdDeviation="0.15"/>
<feComposite in2="hardAlpha" operator="arithmetic" k2="-1" k3="1"/>
<feColorMatrix type="matrix" values="0 0 0 0 0.239216 0 0 0 0 0.211765 0 0 0 0 0.266667 0 0 0 1 0"/>
<feBlend mode="normal" in2="shape" result="effect1_innerShadow_16_299"/>
<feColorMatrix in="SourceAlpha" type="matrix" values="0 0 0 0 0 0 0 0 0 0 0 0 0 0 0 0 0 0 127 0" result="hardAlpha"/>
<feOffset dx="-0.2"/>
<feGaussianBlur stdDeviation="0.1"/>
<feComposite in2="hardAlpha" operator="arithmetic" k2="-1" k3="1"/>
<feColorMatrix type="matrix" values="0 0 0 0 0.317647 0 0 0 0 0.298039 0 0 0 0 0.341176 0 0 0 1 0"/>
<feBlend mode="normal" in2="effect1_innerShadow_16_299" result="effect2_innerShadow_16_299"/>
<feColorMatrix in="SourceAlpha" type="matrix" values="0 0 0 0 0 0 0 0 0 0 0 0 0 0 0 0 0 0 127 0" result="hardAlpha"/>
<feOffset dy="-0.3"/>
<feGaussianBlur stdDeviation="0.15"/>
<feComposite in2="hardAlpha" operator="arithmetic" k2="-1" k3="1"/>
<feColorMatrix type="matrix" values="0 0 0 0 0.211765 0 0 0 0 0.129412 0 0 0 0 0.278431 0 0 0 1 0"/>
<feBlend mode="normal" in2="effect2_innerShadow_16_299" result="effect3_innerShadow_16_299"/>
</filter>
<linearGradient id="paint0_linear_16_299" x1="25.4159" y1="20.0105" x2="25.4159" y2="39.593" gradientUnits="userSpaceOnUse">
<stop stop-color="#473B53"/>
<stop offset="1" stop-color="#433D4A"/>
</linearGradient>
<radialGradient id="paint1_radial_16_299" cx="0" cy="0" r="1" gradientUnits="userSpaceOnUse" gradientTransform="translate(21.1311 35.2632) rotate(-47.8157) scale(1.53044 4.26966)">
<stop offset="0.428" stop-color="#545058"/>
<stop offset="1" stop-color="#545058" stop-opacity="0"/>
</radialGradient>
<linearGradient id="paint2_linear_16_299" x1="43.4947" y1="12.332" x2="43.4947" y2="31.9163" gradientUnits="userSpaceOnUse">
<stop stop-color="#473B53"/>
<stop offset="1" stop-color="#433D4A"/>
</linearGradient>
<linearGradient id="paint3_linear_16_299" x1="43.4947" y1="12.332" x2="43.4947" y2="31.9163" gradientUnits="userSpaceOnUse">
<stop stop-color="#473B53"/>
<stop offset="1" stop-color="#433D4A"/>
</linearGradient>
<linearGradient id="paint4_linear_16_299" x1="16.5463" y1="6.84352" x2="16.5463" y2="23.8731" gradientUnits="userSpaceOnUse">
<stop stop-color="#473B53"/>
<stop offset="1" stop-color="#433D4A"/>
</linearGradient>
<linearGradient id="paint5_linear_16_299" x1="9.84336" y1="13.5752" x2="10.747" y2="13.5752" gradientUnits="userSpaceOnUse">
<stop stop-color="#5C5A5F"/>
<stop offset="1" stop-color="#5C5A5F" stop-opacity="0"/>
</linearGradient>
<radialGradient id="paint6_radial_16_299" cx="0" cy="0" r="1" gradientUnits="userSpaceOnUse" gradientTransform="translate(12.0944 18.7852) rotate(-47.8834) scale(1.7438 4.18452)">
<stop offset="0.428" stop-color="#545058"/>
<stop offset="1" stop-color="#545058" stop-opacity="0"/>
</radialGradient>
<radialGradient id="paint7_radial_16_299" cx="0" cy="0" r="1" gradientUnits="userSpaceOnUse" gradientTransform="translate(16.3271 46.9463) rotate(-90) scale(8.72234 11.9932)">
<stop stop-color="#442B58"/>
<stop offset="1" stop-color="#302C33"/>
</radialGradient>
<radialGradient id="paint8_radial_16_299" cx="0" cy="0" r="1" gradientUnits="userSpaceOnUse" gradientTransform="translate(20.3264 37.9031) rotate(130.389) scale(7.10434)">
<stop stop-color="#5A585C"/>
<stop offset="1" stop-color="#5A585C" stop-opacity="0"/>
</radialGradient>
<radialGradient id="paint9_radial_16_299" cx="0" cy="0" r="1" gradientUnits="userSpaceOnUse" gradientTransform="translate(19.1944 40.6458) rotate(-169.765) scale(11.8178 12.1501)">
<stop offset="0.619" stop-color="#5C5C5C" stop-opacity="0"/>
<stop offset="1" stop-color="#828282"/>
</radialGradient>
<radialGradient id="paint10_radial_16_299" cx="0" cy="0" r="1" gradientUnits="userSpaceOnUse" gradientTransform="translate(14.5844 40.0439) scale(10.5839 14.0676)">
<stop offset="0.796" stop-color="#575658" stop-opacity="0"/>
<stop offset="0.955" stop-color="#575658"/>
</radialGradient>
<radialGradient id="paint11_radial_16_299" cx="0" cy="0" r="1" gradientUnits="userSpaceOnUse" gradientTransform="translate(16.3271 39.3073) rotate(90) scale(8.72676 8.84691)">
<stop offset="0.881" stop-color="#64487C" stop-opacity="0"/>
<stop offset="1" stop-color="#64487C"/>
</radialGradient>
<radialGradient id="paint12_radial_16_299" cx="0" cy="0" r="1" gradientUnits="userSpaceOnUse" gradientTransform="translate(7.56171 30.4916) rotate(-90) scale(8.59079 11.8123)">
<stop stop-color="#442B58"/>
<stop offset="1" stop-color="#302C33"/>
</radialGradient>
<radialGradient id="paint13_radial_16_299" cx="0" cy="0" r="1" gradientUnits="userSpaceOnUse" gradientTransform="translate(11.4999 21.5809) rotate(130.389) scale(6.99719)">
<stop stop-color="#5A585C"/>
<stop offset="1" stop-color="#5A585C" stop-opacity="0"/>
</radialGradient>
<radialGradient id="paint14_radial_16_299" cx="0" cy="0" r="1" gradientUnits="userSpaceOnUse" gradientTransform="translate(10.3868 24.2876) rotate(-169.765) scale(11.6396 11.9668)">
<stop offset="0.619" stop-color="#5C5C5C" stop-opacity="0"/>
<stop offset="1" stop-color="#828282"/>
</radialGradient>
<radialGradient id="paint15_radial_16_299" cx="0" cy="0" r="1" gradientUnits="userSpaceOnUse" gradientTransform="translate(5.846 23.6934) scale(10.4243 13.8554)">
<stop offset="0.796" stop-color="#575658" stop-opacity="0"/>
<stop offset="0.955" stop-color="#575658"/>
</radialGradient>
<radialGradient id="paint16_radial_16_299" cx="0" cy="0" r="1" gradientUnits="userSpaceOnUse" gradientTransform="translate(7.56171 22.9676) rotate(90) scale(8.59514 8.71348)">
<stop offset="0.881" stop-color="#64487C" stop-opacity="0"/>
<stop offset="1" stop-color="#64487C"/>
</radialGradient>
<radialGradient id="paint17_radial_16_299" cx="0" cy="0" r="1" gradientUnits="userSpaceOnUse" gradientTransform="translate(34.4059 39.3917) rotate(-90) scale(8.72234 11.9932)">
<stop stop-color="#442B58"/>
<stop offset="1" stop-color="#2D2931"/>
</radialGradient>
<radialGradient id="paint18_radial_16_299" cx="0" cy="0" r="1" gradientUnits="userSpaceOnUse" gradientTransform="translate(38.4032 30.3461) rotate(130.389) scale(7.10434)">
<stop stop-color="#5A585C"/>
<stop offset="1" stop-color="#5A585C" stop-opacity="0"/>
</radialGradient>
<radialGradient id="paint19_radial_16_299" cx="0" cy="0" r="1" gradientUnits="userSpaceOnUse" gradientTransform="translate(32.6632 32.4912) scale(10.5839 14.0676)">
<stop offset="0.796" stop-color="#575658" stop-opacity="0"/>
<stop offset="0.955" stop-color="#575658"/>
</radialGradient>
<radialGradient id="paint20_radial_16_299" cx="0" cy="0" r="1" gradientUnits="userSpaceOnUse" gradientTransform="translate(34.4059 31.7528) rotate(90) scale(8.72676 8.84691)">
<stop offset="0.881" stop-color="#64487C" stop-opacity="0"/>
<stop offset="1" stop-color="#64487C"/>
</radialGradient>
</defs>
</svg>
