<svg width="230" height="46" viewBox="0 0 230 46" fill="none" xmlns="http://www.w3.org/2000/svg">
<path d="M49.4598 8.92L42.1398 37H33.8598L29.3798 18.52L24.7398 37H16.4598L9.33984 8.92H16.6598L20.6998 29.36L25.6998 8.92H33.2198L38.0198 29.36L42.0998 8.92H49.4598ZM51.5302 25.8C51.5302 23.5067 51.9568 21.4933 52.8102 19.76C53.6902 18.0267 54.8768 16.6933 56.3702 15.76C57.8635 14.8267 59.5302 14.36 61.3702 14.36C62.9435 14.36 64.3168 14.68 65.4902 15.32C66.6902 15.96 67.6102 16.8 68.2502 17.84V14.68H75.0902V37H68.2502V33.84C67.5835 34.88 66.6502 35.72 65.4502 36.36C64.2768 37 62.9035 37.32 61.3302 37.32C59.5168 37.32 57.8635 36.8533 56.3702 35.92C54.8768 34.96 53.6902 33.6133 52.8102 31.88C51.9568 30.12 51.5302 28.0933 51.5302 25.8ZM68.2502 25.84C68.2502 24.1333 67.7702 22.7867 66.8102 21.8C65.8768 20.8133 64.7302 20.32 63.3702 20.32C62.0102 20.32 60.8502 20.8133 59.8902 21.8C58.9568 22.76 58.4902 24.0933 58.4902 25.8C58.4902 27.5067 58.9568 28.8667 59.8902 29.88C60.8502 30.8667 62.0102 31.36 63.3702 31.36C64.7302 31.36 65.8768 30.8667 66.8102 29.88C67.7702 28.8933 68.2502 27.5467 68.2502 25.84ZM90.0786 30.6L94.9186 14.68H102.199L94.2786 37H85.8386L77.9186 14.68H85.2386L90.0786 30.6ZM126.118 25.48C126.118 26.12 126.078 26.7867 125.998 27.48H110.518C110.624 28.8667 111.064 29.9333 111.838 30.68C112.638 31.4 113.611 31.76 114.758 31.76C116.464 31.76 117.651 31.04 118.318 29.6H125.598C125.224 31.0667 124.544 32.3867 123.558 33.56C122.598 34.7333 121.384 35.6533 119.918 36.32C118.451 36.9867 116.811 37.32 114.998 37.32C112.811 37.32 110.864 36.8533 109.158 35.92C107.451 34.9867 106.118 33.6533 105.158 31.92C104.198 30.1867 103.718 28.16 103.718 25.84C103.718 23.52 104.184 21.4933 105.118 19.76C106.078 18.0267 107.411 16.6933 109.118 15.76C110.824 14.8267 112.784 14.36 114.998 14.36C117.158 14.36 119.078 14.8133 120.758 15.72C122.438 16.6267 123.744 17.92 124.678 19.6C125.638 21.28 126.118 23.24 126.118 25.48ZM119.118 23.68C119.118 22.5067 118.718 21.5733 117.918 20.88C117.118 20.1867 116.118 19.84 114.918 19.84C113.771 19.84 112.798 20.1733 111.998 20.84C111.224 21.5067 110.744 22.4533 110.558 23.68H119.118ZM146.726 22.6C148.353 22.9467 149.659 23.76 150.646 25.04C151.633 26.2933 152.126 27.7333 152.126 29.36C152.126 31.7067 151.299 33.5733 149.646 34.96C148.019 36.32 145.739 37 142.806 37H129.726V8.92H142.366C145.219 8.92 147.446 9.57333 149.046 10.88C150.673 12.1867 151.486 13.96 151.486 16.2C151.486 17.8533 151.046 19.2267 150.166 20.32C149.313 21.4133 148.166 22.1733 146.726 22.6ZM136.566 20.28H141.046C142.166 20.28 143.019 20.04 143.606 19.56C144.219 19.0533 144.526 18.32 144.526 17.36C144.526 16.4 144.219 15.6667 143.606 15.16C143.019 14.6533 142.166 14.4 141.046 14.4H136.566V20.28ZM141.606 31.48C142.753 31.48 143.633 31.2267 144.246 30.72C144.886 30.1867 145.206 29.4267 145.206 28.44C145.206 27.4533 144.873 26.68 144.206 26.12C143.566 25.56 142.673 25.28 141.526 25.28H136.566V31.48H141.606ZM177.133 25.48C177.133 26.12 177.093 26.7867 177.013 27.48H161.533C161.64 28.8667 162.08 29.9333 162.853 30.68C163.653 31.4 164.627 31.76 165.773 31.76C167.48 31.76 168.667 31.04 169.333 29.6H176.613C176.24 31.0667 175.56 32.3867 174.573 33.56C173.613 34.7333 172.4 35.6533 170.933 36.32C169.467 36.9867 167.827 37.32 166.013 37.32C163.827 37.32 161.88 36.8533 160.173 35.92C158.467 34.9867 157.133 33.6533 156.173 31.92C155.213 30.1867 154.733 28.16 154.733 25.84C154.733 23.52 155.2 21.4933 156.133 19.76C157.093 18.0267 158.427 16.6933 160.133 15.76C161.84 14.8267 163.8 14.36 166.013 14.36C168.173 14.36 170.093 14.8133 171.773 15.72C173.453 16.6267 174.76 17.92 175.693 19.6C176.653 21.28 177.133 23.24 177.133 25.48ZM170.133 23.68C170.133 22.5067 169.733 21.5733 168.933 20.88C168.133 20.1867 167.133 19.84 165.933 19.84C164.787 19.84 163.813 20.1733 163.013 20.84C162.24 21.5067 161.76 22.4533 161.573 23.68H170.133ZM179.382 25.8C179.382 23.5067 179.808 21.4933 180.662 19.76C181.542 18.0267 182.728 16.6933 184.222 15.76C185.715 14.8267 187.382 14.36 189.222 14.36C190.795 14.36 192.168 14.68 193.342 15.32C194.542 15.96 195.462 16.8 196.102 17.84V14.68H202.942V37H196.102V33.84C195.435 34.88 194.502 35.72 193.302 36.36C192.128 37 190.755 37.32 189.182 37.32C187.368 37.32 185.715 36.8533 184.222 35.92C182.728 34.96 181.542 33.6133 180.662 31.88C179.808 30.12 179.382 28.0933 179.382 25.8ZM196.102 25.84C196.102 24.1333 195.622 22.7867 194.662 21.8C193.728 20.8133 192.582 20.32 191.222 20.32C189.862 20.32 188.702 20.8133 187.742 21.8C186.808 22.76 186.342 24.0933 186.342 25.8C186.342 27.5067 186.808 28.8667 187.742 29.88C188.702 30.8667 189.862 31.36 191.222 31.36C192.582 31.36 193.728 30.8667 194.662 29.88C195.622 28.8933 196.102 27.5467 196.102 25.84ZM220.33 31.2V37H216.85C214.37 37 212.437 36.4 211.05 35.2C209.663 33.9733 208.97 31.9867 208.97 29.24V20.36H206.25V14.68H208.97V9.24H215.81V14.68H220.29V20.36H215.81V29.32C215.81 29.9867 215.97 30.4667 216.29 30.76C216.61 31.0533 217.143 31.2 217.89 31.2H220.33Z" fill="url(#paint0_linear_41_504)" fill-opacity="0.57"/>
<defs>
<linearGradient id="paint0_linear_41_504" x1="63.2886" y1="16.1" x2="79.4736" y2="75.9884" gradientUnits="userSpaceOnUse">
<stop stop-color="#4C67ED"/>
<stop offset="1" stop-color="#8C00FF"/>
</linearGradient>
</defs>
</svg>
